<svg width="22" height="22" viewBox="0 0 22 22" fill="none" xmlns="http://www.w3.org/2000/svg">
<path d="M1.83334 17.4167C1.83334 18.975 3.02501 20.1667 4.58334 20.1667H17.4167C18.975 20.1667 20.1667 18.975 20.1667 17.4167V10.0833H1.83334V17.4167ZM17.4167 3.66668H15.5833V2.75001C15.5833 2.20001 15.2167 1.83334 14.6667 1.83334C14.1167 1.83334 13.75 2.20001 13.75 2.75001V3.66668H8.25001V2.75001C8.25001 2.20001 7.88334 1.83334 7.33334 1.83334C6.78334 1.83334 6.41668 2.20001 6.41668 2.75001V3.66668H4.58334C3.02501 3.66668 1.83334 4.85834 1.83334 6.41668V8.25001H20.1667V6.41668C20.1667 4.85834 18.975 3.66668 17.4167 3.66668Z" fill="#81689D"/>
</svg>
