<svg width="24" height="24" viewBox="0 0 24 24" fill="none" xmlns="http://www.w3.org/2000/svg">
<path d="M20.3438 17.1562H18.6961C18.5836 17.1562 18.4782 17.2054 18.4078 17.2922C18.2438 17.4914 18.068 17.6836 17.8828 17.8664C17.1256 18.6244 16.2286 19.2285 15.2414 19.6453C14.2188 20.0772 13.1196 20.2988 12.0094 20.2969C10.8868 20.2969 9.79925 20.0765 8.77738 19.6453C7.79026 19.2285 6.89325 18.6244 6.13597 17.8664C5.37733 17.1109 4.77242 16.2155 4.35472 15.2297C3.92113 14.2078 3.70316 13.1226 3.70316 12C3.70316 10.8773 3.92347 9.79216 4.35472 8.77029C4.77191 7.78357 5.37191 6.89529 6.13597 6.13357C6.90003 5.37185 7.78831 4.77185 8.77738 4.35466C9.79925 3.92341 10.8868 3.7031 12.0094 3.7031C13.1321 3.7031 14.2196 3.92107 15.2414 4.35466C16.2305 4.77185 17.1188 5.37185 17.8828 6.13357C18.068 6.31872 18.2414 6.51091 18.4078 6.70779C18.4782 6.79451 18.586 6.84372 18.6961 6.84372H20.3438C20.4914 6.84372 20.5828 6.67966 20.5008 6.55544C18.7032 3.76169 15.5578 1.91247 11.9836 1.92185C6.368 1.93591 1.86566 6.49451 1.92191 12.1031C1.97816 17.6226 6.47347 22.0781 12.0094 22.0781C15.5743 22.0781 18.7055 20.2312 20.5008 17.4445C20.5805 17.3203 20.4914 17.1562 20.3438 17.1562ZM22.4274 11.8523L19.1016 9.22732C18.9774 9.12888 18.7969 9.21794 18.7969 9.37497V11.1562H11.4375C11.3344 11.1562 11.25 11.2406 11.25 11.3437V12.6562C11.25 12.7593 11.3344 12.8437 11.4375 12.8437H18.7969V14.625C18.7969 14.782 18.9797 14.8711 19.1016 14.7726L22.4274 12.1476C22.4498 12.1301 22.4679 12.1077 22.4804 12.0821C22.4928 12.0565 22.4993 12.0284 22.4993 12C22.4993 11.9715 22.4928 11.9434 22.4804 11.9178C22.4679 11.8923 22.4498 11.8699 22.4274 11.8523Z" fill="#3A3A3A"/>
</svg>
