<svg width="26" height="26" viewBox="0 0 26 26" fill="none" xmlns="http://www.w3.org/2000/svg">
<path d="M4.33325 19.5C4.33325 18.3507 4.7898 17.2485 5.60246 16.4358C6.41511 15.6232 7.51731 15.1666 8.66659 15.1666H17.3333C18.4825 15.1666 19.5847 15.6232 20.3974 16.4358C21.21 17.2485 21.6666 18.3507 21.6666 19.5C21.6666 20.0746 21.4383 20.6257 21.032 21.032C20.6257 21.4384 20.0746 21.6666 19.4999 21.6666H6.49992C5.92528 21.6666 5.37418 21.4384 4.96785 21.032C4.56153 20.6257 4.33325 20.0746 4.33325 19.5Z" stroke="#3A3A3A" stroke-width="2" stroke-linejoin="round"/>
<path d="M13 10.8333C14.7949 10.8333 16.25 9.37824 16.25 7.58331C16.25 5.78839 14.7949 4.33331 13 4.33331C11.2051 4.33331 9.75 5.78839 9.75 7.58331C9.75 9.37824 11.2051 10.8333 13 10.8333Z" stroke="#3A3A3A" stroke-width="2"/>
</svg>
